<svg width="48" height="48" viewBox="0 0 48 48" fill="none" xmlns="http://www.w3.org/2000/svg">
<rect width="48" height="48" rx="24" fill="black"/>
<path d="M39.9243 22.6592H39.5961C35.7703 22.6592 31.9446 22.6562 28.1194 22.6634C27.6876 22.664 27.3516 22.516 27.0749 22.1902C26.7527 21.8111 26.4197 21.4404 26.0867 21.0703C25.6178 20.5493 25.056 20.5415 24.5637 21.0505C24.1625 21.4656 23.7642 21.8836 23.3689 22.3052C23.1456 22.5436 22.885 22.6622 22.5508 22.6622C17.8088 22.6574 13.0667 22.6592 8.324 22.6586C8.23657 22.6586 8.14913 22.6508 8 22.6442C8.10241 21.9866 8.17727 21.3476 8.30724 20.7199C8.42821 20.1372 8.61567 19.5695 8.75761 18.9909C8.8163 18.7526 8.93847 18.6921 9.17744 18.6927C14.1291 18.7004 19.0802 18.6939 24.0319 18.7034C24.7392 18.7046 25.3082 18.4866 25.7502 17.9231C25.9951 17.6105 26.2694 17.3188 26.5431 17.0295C26.9677 16.5809 27.5361 16.5947 27.9487 17.0559C28.2877 17.4338 28.6333 17.8069 28.9573 18.198C29.2627 18.5663 29.6466 18.7022 30.1137 18.7016C32.9926 18.6957 35.8722 18.7022 38.7511 18.6927C39.0146 18.6915 39.1218 18.7651 39.2026 19.0221C39.571 20.1929 39.8225 21.3829 39.9231 22.6598L39.9243 22.6592Z" fill="white"/>
<path d="M9.55911 30.9683C8.94045 29.695 8.51104 28.378 8.24573 26.9658C8.38647 26.9658 8.50266 26.9658 8.61884 26.9658C11.887 26.9658 15.1552 26.9623 18.4234 26.9688C19.0738 26.97 19.6026 26.7526 20.0183 26.246C20.2836 25.9232 20.5639 25.6123 20.8484 25.3057C21.267 24.8547 21.8461 24.8559 22.2582 25.3075C22.6073 25.6896 22.9559 26.0735 23.2889 26.47C23.5877 26.8269 23.9608 26.9682 24.4178 26.9676C29.3899 26.9634 34.3619 26.9652 39.3334 26.9652C39.4514 26.9652 39.5693 26.9652 39.7071 26.9652C39.4591 28.3194 39.0393 29.586 38.4781 30.8102C38.3913 31 38.2536 30.9689 38.1098 30.9689C35.28 30.9689 32.4502 30.9689 29.6204 30.9689C27.229 30.9689 24.8376 30.9629 22.4468 30.9743C21.9605 30.9767 21.5832 30.8204 21.2748 30.4436C20.9657 30.0663 20.634 29.7082 20.3076 29.3453C19.8829 28.8727 19.317 28.853 18.872 29.3021C18.4378 29.7405 18.0311 30.2089 17.576 30.6245C17.3921 30.7928 17.1136 30.9503 16.8771 30.9527C14.4467 30.9767 12.0158 30.9671 9.55792 30.9671L9.55911 30.9683Z" fill="white"/>
<path d="M36.7252 14.4033C35.9418 14.4033 35.1579 14.4033 34.3745 14.4033C34.1655 14.4033 33.9559 14.4015 33.7469 14.4033C33.3767 14.4075 33.0689 14.2698 32.8228 13.9955C32.4574 13.5876 32.0993 13.1738 31.7304 12.7689C31.3027 12.2994 30.7326 12.2886 30.2924 12.7402C29.8965 13.1463 29.5025 13.5553 29.1198 13.9739C28.8473 14.2722 28.5298 14.4081 28.119 14.4075C22.6007 14.4004 17.0819 14.4027 11.5636 14.4027C11.4552 14.4027 11.3468 14.4027 11.1444 14.4027C13.888 10.895 17.3652 8.72159 21.712 8.15982C27.8591 7.36568 32.8539 9.54987 36.7587 14.2914C36.7473 14.3285 36.736 14.3656 36.7246 14.4027L36.7252 14.4033Z" fill="white"/>
<path d="M12.3199 34.9443C12.9811 34.8874 13.4525 34.5575 13.84 34.0646C14.0609 33.7837 14.3119 33.5256 14.5514 33.2584C14.9605 32.8021 15.5438 32.7877 15.9595 33.2351C16.2978 33.5998 16.632 33.9693 16.947 34.3538C17.2686 34.7473 17.6639 34.906 18.1712 34.9054C23.8679 34.897 29.5646 34.9 35.262 34.9C35.3794 34.9 35.4973 34.9 35.6147 34.9C32.8933 37.8262 29.5598 39.5475 25.5993 39.9188C20.3925 40.4069 15.9714 38.6869 12.3199 34.9437V34.9443Z" fill="white"/>
</svg>
