<svg width="48" height="48" viewBox="0 0 48 48" fill="none" xmlns="http://www.w3.org/2000/svg">
<rect width="48" height="48" rx="24" fill="#213147"/>
<path fill-rule="evenodd" clip-rule="evenodd" d="M30.4287 17.9212C30.5443 17.624 30.9571 17.624 31.0727 17.9212V17.9377L38.0413 37.027L34.0616 39.3223L28.4306 23.8825C28.3811 23.7173 28.3811 23.5522 28.4306 23.4036L30.4287 17.9212ZM25.0619 32.618L27.06 27.1356C27.1756 26.8383 27.5885 26.8383 27.704 27.1356L32.4764 40.2305L28.4967 42.5259L25.0619 33.0968C25.0124 32.9317 25.0124 32.7666 25.0619 32.618Z" fill="#12AAFF"/>
<path fill-rule="evenodd" clip-rule="evenodd" d="M24.2859 5.99868C24.2033 5.94914 24.1042 5.91611 24.0051 5.91611V5.8996C23.9061 5.8996 23.807 5.93263 23.7244 5.98217L8.56528 14.7342C8.40015 14.8332 8.28456 15.0314 8.28456 15.2296V32.7501C8.28456 32.9482 8.38364 33.1464 8.56528 33.2455L14.865 36.8826L13.9759 39.3092L7.27725 35.4417C6.30297 34.8803 5.7085 33.8565 5.7085 32.7336V15.2296C5.7085 14.1067 6.30297 13.0828 7.27725 12.5214L22.4364 3.7694C22.9293 3.49009 23.4549 3.35791 23.9969 3.35658C24.5391 3.35791 25.0809 3.49009 25.5574 3.7694L40.733 12.5214C41.7073 13.0828 42.3018 14.1067 42.3018 15.2296V32.7336C42.3018 33.8565 41.7073 34.8803 40.733 35.4417L25.5739 44.1937C25.0785 44.4745 24.5501 44.6066 24.0051 44.6066C23.4602 44.6066 22.9153 44.4745 22.4364 44.1937L15.5697 40.2293L17.5354 38.4243L23.7244 41.9975C23.807 42.047 23.9061 42.08 24.0051 42.08C24.1042 42.08 24.2033 42.047 24.2859 41.9975L39.445 33.2455C39.6101 33.1464 39.7257 32.9482 39.7257 32.7501V15.2461C39.7257 15.0479 39.6266 14.8498 39.445 14.7507L24.2859 5.99868ZM23.9969 3.35658C23.9996 3.35657 24.0024 3.35657 24.0051 3.35657H23.9886C23.9914 3.35657 23.9941 3.35657 23.9969 3.35658Z" fill="#9DCCED"/>
<path fill-rule="evenodd" clip-rule="evenodd" d="M25.6069 13.9911H29.4544V13.9745C29.6856 13.9745 29.8508 14.2057 29.7682 14.4369L19.53 42.5259L15.5503 40.2306L24.9629 14.4369C25.0619 14.1727 25.3261 13.9911 25.6069 13.9911ZM18.8695 13.9911H22.717L22.7335 13.9746C22.9647 13.9746 23.1299 14.2057 23.0473 14.4369L13.965 39.3223L9.98535 37.027L18.2254 14.4369C18.3245 14.1727 18.5887 13.9911 18.8695 13.9911Z" fill="white"/>
</svg>
