<svg width="48" height="48" viewBox="0 0 48 48" fill="none" xmlns="http://www.w3.org/2000/svg">
<rect width="48" height="48" rx="24" fill="#E84142"/>
<path d="M12.4179 34.1317H17.0725C18.1684 34.1317 18.7163 34.1317 19.2054 33.9963C19.7416 33.8369 20.2306 33.5543 20.6371 33.1653C21.0105 32.8096 21.2799 32.3381 21.8114 31.408L21.8273 31.3801L27.8642 20.7086C28.4004 19.7718 28.6655 19.3004 28.7834 18.8055C28.913 18.2693 28.913 17.7037 28.7834 17.1675C28.6664 16.6763 28.3986 16.2083 27.8704 15.2855L25.4956 11.1401C25.0066 10.2798 24.7592 9.84972 24.4469 9.69064C24.1111 9.51979 23.7104 9.51979 23.3745 9.69064C23.0623 9.84972 22.8148 10.2798 22.3258 11.1401L10.8329 31.3978C10.3498 32.2462 10.1082 32.6706 10.1259 33.0181C10.1495 33.3952 10.3439 33.737 10.6621 33.9433C10.9567 34.1317 11.4398 34.1317 12.4179 34.1317Z" fill="white"/>
<path d="M35.4965 34.1317H28.827C27.843 34.1317 27.3481 34.1317 27.0594 33.9433C26.7412 33.737 26.5468 33.3895 26.5232 33.0123C26.5057 32.6674 26.7492 32.2471 27.2364 31.406L27.2365 31.4058L27.2479 31.3862L30.5769 25.671C31.0659 24.8284 31.3134 24.4101 31.6198 24.251C31.9554 24.0801 32.3505 24.0801 32.6861 24.251C32.9903 24.4059 33.2272 24.8065 33.6962 25.5996L33.7349 25.6651L37.0758 31.3803C37.092 31.4084 37.108 31.4361 37.124 31.4633C37.587 32.2624 37.8234 32.6703 37.8065 33.0066C37.7886 33.3834 37.5883 33.7312 37.2702 33.9375C36.9755 34.1317 36.4805 34.1317 35.4965 34.1317Z" fill="white"/>
</svg>
