<svg width="48" height="48" viewBox="0 0 48 48" fill="none" xmlns="http://www.w3.org/2000/svg">
<g clip-path="url(#clip0_124_19021)">
<rect width="48" height="48" rx="24" fill="white"/>
<path d="M48 24C48 30.3652 45.4714 36.4697 40.9706 40.9706C36.4697 45.4714 30.3652 48 24 48C20.8483 48 17.7274 47.3792 14.8156 46.1731C11.9038 44.967 9.25804 43.1992 7.02944 40.9706C2.52856 36.4697 0 30.3652 0 24C0 17.6348 2.52856 11.5303 7.02944 7.02944C11.5303 2.52856 17.6348 0 24 0C27.1517 0 30.2726 0.620778 33.1844 1.82689C36.0962 3.033 38.742 4.80083 40.9706 7.02944C43.1992 9.25804 44.967 11.9038 46.1731 14.8156C47.3792 17.7274 48 20.8483 48 24ZM32.1685 22.6672V25.3328C32.1685 25.3901 32.1399 25.4187 32.0825 25.4187H7.27601C7.1992 25.4187 7.16194 25.4571 7.16423 25.534C7.34136 29.9071 9.82459 34.2029 13.0765 36.9389C16.9132 40.1634 22.0344 41.5563 26.9819 40.6414C35.0679 39.1453 41.0834 31.8968 40.865 23.5907C40.6672 16.0877 35.4119 9.42906 28.0963 7.61135C18.1702 5.14531 7.91573 12.0619 7.14875 22.4884C7.1478 22.5002 7.14936 22.5122 7.15334 22.5234C7.15732 22.5346 7.16363 22.5449 7.17187 22.5536C7.18011 22.5624 7.19011 22.5693 7.20122 22.5741C7.21234 22.5788 7.22434 22.5813 7.23646 22.5813H32.0825C32.1399 22.5813 32.1685 22.6099 32.1685 22.6672Z" fill="#0052FF"/>
</g>
<defs>
<clipPath id="clip0_124_19021">
<rect width="48" height="48" rx="24" fill="white"/>
</clipPath>
</defs>
</svg>
