<svg width="48" height="48" viewBox="0 0 48 48" fill="none" xmlns="http://www.w3.org/2000/svg">
<rect width="48" height="48" rx="24" fill="#F7931A"/>
<path d="M34.5158 20.5549C34.9935 17.3606 32.5617 15.6436 29.2363 14.4982L30.3151 10.1713L27.6812 9.51502L26.631 13.728C25.9386 13.5553 25.2275 13.3925 24.5207 13.2312L25.5785 8.99047L22.9462 8.33417L21.8669 12.6596C21.2939 12.5292 20.7311 12.4002 20.185 12.2644L20.1881 12.2508L16.5559 11.3437L15.8552 14.1569C15.8552 14.1569 17.8094 14.6048 17.7682 14.6324C18.8348 14.8986 19.0276 15.6047 18.9956 16.1643L17.7668 21.0936C17.8402 21.1123 17.9355 21.1393 18.0406 21.1815C17.9527 21.1597 17.8592 21.1359 17.7622 21.1126L16.0398 28.0179C15.9094 28.342 15.5786 28.8283 14.8329 28.6436C14.8593 28.6818 12.9185 28.1659 12.9185 28.1659L11.6108 31.1808L15.0384 32.0353C15.6761 32.1952 16.3009 32.3625 16.9163 32.5198L15.8264 36.8963L18.4572 37.5526L19.5366 33.2226C20.2553 33.4177 20.9528 33.5977 21.6356 33.7673L20.5599 38.077L23.1939 38.7333L24.2837 34.365C28.7751 35.215 32.1522 34.8723 33.5737 30.8098C34.7191 27.5391 33.5167 25.6526 31.1538 24.4223C32.8748 24.0254 34.1711 22.8935 34.5167 20.5552L34.5159 20.5546L34.5158 20.5549ZM28.498 28.9935C27.684 32.2642 22.1771 30.4961 20.3916 30.0528L21.838 24.2547C23.6233 24.7004 29.3487 25.5824 28.4981 28.9935H28.498ZM29.3125 20.5075C28.57 23.4826 23.9865 21.9711 22.4997 21.6005L23.811 16.3419C25.2979 16.7126 30.086 17.4043 29.3128 20.5075H29.3125Z" fill="white"/>
</svg>
