<svg width="48" height="48" viewBox="0 0 48 48" fill="none" xmlns="http://www.w3.org/2000/svg">
<rect width="48" height="48" rx="24" fill="#F0B90B"/>
<path d="M13.2654 24.0933L13.2827 30.4394L18.675 33.6125V37.3279L10.1269 32.3144V22.2375L13.2654 24.0933ZM13.2654 17.7471V21.4452L10.125 19.5875V15.8894L13.2654 14.0317L16.4212 15.8894L13.2654 17.7471ZM20.9269 15.8894L24.0673 14.0317L27.2231 15.8894L24.0673 17.7471L20.9269 15.8894Z" fill="white"/>
<path d="M15.5346 29.124V25.4087L18.675 27.2664V30.9644L15.5346 29.124ZM20.9269 34.9433L24.0673 36.801L27.2231 34.9433V38.6414L24.0673 40.499L20.9269 38.6414V34.9433ZM31.7269 15.8894L34.8673 14.0317L38.0231 15.8894V19.5875L34.8673 21.4452V17.7471L31.7269 15.8894ZM34.8673 30.4394L34.8846 24.0933L38.025 22.2356V32.3125L29.4769 37.326V33.6106L34.8673 30.4394Z" fill="white"/>
<path d="M32.6154 29.124L29.475 30.9644V27.2663L32.6154 25.4087V29.124Z" fill="white"/>
<path d="M32.6154 19.0625L32.6327 22.7779L27.225 25.951V32.3125L24.0846 34.1529L20.9442 32.3125V25.951L15.5365 22.7779V19.0625L18.6904 17.2048L24.0654 20.3933L29.4731 17.2048L32.6289 19.0625H32.6154ZM15.5346 12.7183L24.0673 7.6875L32.6154 12.7183L29.475 14.576L24.0673 11.3875L18.675 14.576L15.5346 12.7183Z" fill="white"/>
</svg>
