<svg width="48" height="48" viewBox="0 0 48 48" fill="none" xmlns="http://www.w3.org/2000/svg">
<rect width="48" height="48" rx="24" fill="black"/>
<path d="M33.4 18.96C35.8743 18.96 37.88 16.9542 37.88 14.48C37.88 12.0058 35.8743 10 33.4 10C30.9258 10 28.92 12.0058 28.92 14.48C28.92 16.9542 30.9258 18.96 33.4 18.96Z" fill="white"/>
<path d="M16.1923 33.4121L33.3477 33.4694C33.3616 33.4694 33.3749 33.4749 33.3847 33.4846C33.3945 33.4944 33.4 33.5077 33.4 33.5215V37.9478C33.4 37.9617 33.3945 37.9749 33.3847 37.9847C33.3749 37.9945 33.3616 38 33.3477 38H11.0743C11.0604 38 11.0471 37.9945 11.0373 37.9847C11.0275 37.9749 11.0219 37.9617 11.0219 37.9478L11 14.5322C11 14.5253 11.0014 14.5185 11.004 14.5122C11.0066 14.5059 11.0105 14.5001 11.0153 14.4953C11.0202 14.4904 11.026 14.4866 11.0323 14.484C11.0387 14.4814 11.0455 14.48 11.0523 14.48H16.0877C16.1016 14.48 16.1149 14.4855 16.1247 14.4953C16.1345 14.5051 16.14 14.5183 16.14 14.5322V33.36C16.14 33.3738 16.1455 33.3871 16.1553 33.3969C16.1652 33.4066 16.1785 33.4121 16.1923 33.4121Z" fill="white"/>
</svg>
