<svg width="48" height="48" viewBox="0 0 48 48" fill="none" xmlns="http://www.w3.org/2000/svg">
<rect width="48" height="48" rx="24" fill="url(#paint0_linear_124_19052)"/>
<g clip-path="url(#clip0_124_19052)">
<path d="M34.7613 29.8671C34.7613 34.4743 31.8964 38.4139 27.851 40C29.1411 38.885 30.4514 35.7216 29.9588 35.3991C28.9786 34.7565 26.0432 38.6608 27.5134 30.5802C26.6718 31.8362 24.4482 34.274 23.1065 34.9871C25.3099 30.5802 23.4202 23.8841 22.372 22.4995C25.0189 28.3843 17.8063 29.7991 17.8063 35.3991C17.8063 37.2372 18.6214 38.885 19.9115 40C15.8649 38.4126 13 34.4743 13 29.8671C13 25.2598 15.914 23.5061 15.914 19.2617C16.6183 19.5528 17.2444 20.548 17.2444 22.6469C17.2444 23.6321 18.0898 24.1348 18.7272 24.1348C19.8347 24.1348 20.5225 22.9808 20.0803 22.0246C16.7581 14.8409 22.0545 9.6063 25.4687 8C21.9411 19.0854 34.7613 19.6132 34.7613 29.8671Z" fill="white"/>
<path d="M25.4687 8C25.4687 8 23.9796 11.7518 25.5481 14.8901C26.2561 16.3049 27.6734 18.0246 29.1349 19.486C32.161 22.5121 35.9657 26.5461 34.4035 32.3767C32.7216 38.6545 27.8372 40.0189 27.9015 39.9987C28.7821 39.7279 37.766 30.4706 28.5742 23.4079C18.1289 15.3839 25.4687 8 25.4687 8Z" fill="url(#paint1_linear_124_19052)"/>
</g>
<defs>
<linearGradient id="paint0_linear_124_19052" x1="24" y1="0" x2="24" y2="48" gradientUnits="userSpaceOnUse">
<stop stop-color="#FF1F70"/>
<stop offset="1" stop-color="#FF841F"/>
</linearGradient>
<linearGradient id="paint1_linear_124_19052" x1="22.9629" y1="24" x2="34.7676" y2="24" gradientUnits="userSpaceOnUse">
<stop stop-color="#CCCCE6"/>
<stop offset="1" stop-color="#E6E6E6" stop-opacity="0.1"/>
</linearGradient>
<clipPath id="clip0_124_19052">
<rect width="21.7676" height="32" fill="white" transform="translate(13 8)"/>
</clipPath>
</defs>
</svg>
