<svg width="48" height="48" viewBox="0 0 48 48" fill="none" xmlns="http://www.w3.org/2000/svg">
<rect width="48" height="48" rx="24" fill="#EE0092"/>
<path d="M23.5777 9.60001C17.6465 9.60001 12.8 14.4192 12.8 20.3776C12.8 21.576 12.9985 22.7456 13.3697 23.8848C13.5011 24.2609 13.7749 24.5704 14.1322 24.7466C14.4895 24.9229 14.9017 24.9518 15.2801 24.8272C15.6559 24.6955 15.965 24.4216 16.141 24.0643C16.3169 23.7071 16.3456 23.295 16.2209 22.9168C15.908 22.0286 15.7632 21.09 15.7937 20.1488C15.9073 16.1296 19.1585 12.8208 23.1793 12.6224C24.2326 12.5671 25.2859 12.7266 26.2756 13.0912C27.2652 13.4558 28.1704 14.0179 28.936 14.7433C29.7014 15.4688 30.3114 16.3423 30.7288 17.311C31.146 18.2796 31.3619 19.3229 31.3633 20.3776C31.3609 22.361 30.601 24.2687 29.239 25.7105C27.8768 27.1523 26.0154 28.0194 24.0353 28.1344C24.0353 28.1344 22.5233 28.2192 21.7825 28.3344C21.4112 28.3904 21.1265 28.448 20.9264 28.4768C20.84 28.5056 20.7553 28.4192 20.7824 28.3328L21.0401 27.08L22.4369 20.6352C22.5184 20.2499 22.4443 19.848 22.231 19.5169C22.0176 19.1858 21.6822 18.9523 21.2977 18.8672C20.9122 18.7859 20.51 18.86 20.1788 19.0738C19.8478 19.2874 19.6145 19.6231 19.5296 20.008C19.5296 20.008 16.1648 35.6912 16.136 35.8624C16.0547 36.248 16.129 36.65 16.3426 36.9812C16.5563 37.3123 16.892 37.5456 17.2769 37.6304C17.6624 37.7118 18.0646 37.6375 18.3956 37.4239C18.7268 37.2102 18.9601 36.8744 19.0448 36.4896C19.0721 36.3184 19.5296 34.2368 19.5296 34.2368C19.6916 33.4736 20.0854 32.7791 20.6569 32.2481C21.2286 31.7172 21.9503 31.3757 22.7233 31.2704C23.2825 31.2091 23.8433 31.1617 24.4049 31.128C27.1121 30.917 29.6402 29.6932 31.4849 27.7004C33.3295 25.7078 34.355 23.093 34.3568 20.3776C34.3568 14.4192 29.5088 9.60001 23.5777 9.60001ZM24.3473 34.408C24.1151 34.3579 23.8753 34.3544 23.6418 34.3976C23.4083 34.441 23.1857 34.5301 22.9868 34.6601C22.788 34.7899 22.617 34.958 22.4836 35.1546C22.3501 35.351 22.2571 35.5721 22.2097 35.8048C22.0097 36.7744 22.6097 37.744 23.6065 37.944C23.8388 37.9943 24.079 37.9979 24.3127 37.9547C24.5466 37.9114 24.7694 37.8222 24.9684 37.692C25.1675 37.5619 25.3387 37.3936 25.472 37.1968C25.6055 37 25.6985 36.7787 25.7456 36.5456C25.9441 35.5488 25.3457 34.6064 24.3473 34.408Z" fill="white"/>
</svg>
