<svg width="48" height="48" viewBox="0 0 48 48" fill="none" xmlns="http://www.w3.org/2000/svg">
<rect width="48" height="48" rx="24" fill="#8247E5"/>
<path d="M24.7067 34.3288C25.3188 33.9718 25.7143 33.2867 25.7614 32.502L25.7106 26.7894L25.7821 22.9741L25.6872 17.3376C25.6904 16.629 26.0859 15.944 26.7419 15.5108L30.6106 13.3804C31.2227 13.0234 32.0513 12.9944 32.7363 13.3899L36.5421 15.5872C37.151 15.9387 37.5842 16.5947 37.6132 17.4234L37.6264 21.795C37.6233 22.5036 37.2278 23.1886 36.5717 23.6218L32.7031 25.7522C32.091 26.1092 31.2624 26.1382 30.5773 25.7427L28.0655 24.2925L28.0701 28.1517L30.6581 29.6458C31.267 29.9974 32.0517 30.0445 32.7838 29.6553L39.8769 25.6315C40.489 25.2744 40.8845 24.5894 40.9316 23.8047L40.8815 15.4539C40.9286 14.6691 40.4955 14.0131 39.8866 13.6616L32.7317 9.53071C32.1228 9.17914 31.3381 9.13204 30.606 9.52124L23.469 13.6212C22.8569 13.9782 22.4614 14.6632 22.4143 15.4479L22.433 21.0405L22.4376 24.8997L22.4563 30.4923C22.4531 31.2009 22.0576 31.886 21.4016 32.3191L17.6091 34.4934C16.997 34.8505 16.1683 34.8795 15.4833 34.484L11.6775 32.2867C11.0686 31.9351 10.6355 31.2791 10.6065 30.4505L10.5493 26.155C10.5524 25.4464 10.9479 24.7614 11.604 24.3282L15.3965 22.1539C16.0086 21.7969 16.8372 21.7678 17.5223 22.1633L19.958 23.5696L19.9533 19.7104L17.4415 18.2602C16.8326 17.9087 16.0479 17.8616 15.3158 18.2507L8.17876 22.3507C7.56668 22.7077 7.17117 23.3927 7.12407 24.1774L7.14193 32.4082C7.13877 33.1168 7.52797 33.849 8.21301 34.2445L15.444 38.4193C16.0529 38.7708 16.8376 38.8179 17.5697 38.4287L24.7067 34.3288Z" fill="white"/>
</svg>
