<svg width="48" height="48" viewBox="0 0 48 48" fill="none" xmlns="http://www.w3.org/2000/svg">
<rect width="48" height="48" rx="24" fill="#29296E"/>
<path fill-rule="evenodd" clip-rule="evenodd" d="M35.1546 17.2654L34.5485 15.3932C34.4254 15.0123 34.1247 14.716 33.7427 14.5992L31.8611 14.0205C31.6006 13.941 31.5985 13.5736 31.8569 13.4898L33.7298 12.8838C34.11 12.7607 34.4062 12.46 34.5239 12.0778L35.1018 10.1964C35.1813 9.93649 35.5487 9.93382 35.6324 10.1927L36.2385 12.0651C36.3616 12.4453 36.6622 12.7415 37.0443 12.8591L38.9257 13.4371C39.1862 13.5172 39.189 13.884 38.9299 13.9677L37.057 14.5738C36.677 14.6969 36.3806 14.9983 36.2631 15.3804L35.6852 17.2612C35.6057 17.5216 35.2383 17.5245 35.1546 17.2654Z" fill="#FAFAFA"/>
<path fill-rule="evenodd" clip-rule="evenodd" d="M2.02307 23.3C2.59517 22.1706 3.72658 21.3196 4.90212 20.7818C6.0895 20.2496 7.39506 19.923 8.6771 19.817C11.2655 19.5814 13.7869 20.0176 16.0838 20.7717C17.2672 21.127 18.3261 21.6204 19.4197 22.1189C19.9514 22.3767 20.4509 22.6689 20.9655 22.9512L22.3869 23.7813C23.9474 24.7454 25.4605 25.599 26.8819 26.2622C28.3068 26.9197 29.5946 27.3645 30.8084 27.5915C32.0223 27.8216 33.256 27.8187 34.7733 27.4678C36.2785 27.1247 37.972 26.3848 39.7423 25.4357C41.5233 24.486 43.3498 23.3214 45.4335 22.1834C45.2244 24.562 44.5565 26.7923 43.5133 28.946C42.4443 31.0739 40.9576 33.1496 38.79 34.8305C36.6636 36.5251 33.7434 37.7061 30.7707 37.8838C27.7966 38.0863 24.9673 37.426 22.5602 36.4327C20.1439 35.4249 18.056 34.1006 16.2055 32.6388C15.6945 32.2349 15.4201 32.0056 15.0427 31.6841L13.9888 30.7538C13.2788 30.1936 12.5909 29.5239 11.8879 28.969C10.4858 27.7879 9.09858 26.6047 7.57769 25.579C6.81084 25.0576 6.01989 24.5742 5.12299 24.1458C4.67742 23.9389 4.20411 23.7462 3.69602 23.5943C3.1758 23.4232 2.64705 23.3214 2.02307 23.3Z" fill="#FF4F0A"/>
<path fill-rule="evenodd" clip-rule="evenodd" d="M2 23.4002C2.29209 20.9717 3.4242 18.6938 5.23857 16.7548C7.04364 14.8344 9.86359 13.3541 12.9928 13.1579C14.537 13.0548 16.1049 13.2269 17.5461 13.6262C18.9809 14.0244 20.3255 14.6042 21.5374 15.2873C22.1428 15.6305 22.7092 16.0058 23.2734 16.3846L24.7773 17.5232L27.1247 19.3753C28.6482 20.5885 30.1024 21.7109 31.4462 22.6376C32.803 23.5658 33.9585 24.2438 35.0623 24.6412C36.1559 25.0747 37.5374 25.1856 39.3639 24.7265C40.2708 24.5174 41.2166 24.1359 42.2257 23.7223C43.2294 23.2985 44.2712 22.7933 45.4104 22.2922C45.2733 23.5133 45.0252 24.7293 44.554 25.8658C44.1014 27.0178 43.5051 28.145 42.6715 29.1962C42.2451 29.7079 41.788 30.2226 41.255 30.6972C40.7221 31.1607 40.1315 31.6006 39.479 31.9865C38.1779 32.7407 36.6342 33.2915 35.0508 33.4877C33.4674 33.6866 31.8776 33.5871 30.43 33.28C28.9745 32.9815 27.6485 32.5004 26.4311 31.9446C24.0047 30.816 21.9751 29.3974 20.1805 27.8956C19.2794 27.1458 18.4344 26.3625 17.6342 25.5673L16.689 24.6184C16.404 24.3434 16.1162 24.0669 15.8313 23.8139C14.6827 22.7982 13.6168 22.0222 12.4428 21.5382C11.2772 21.0314 9.78557 20.8232 7.95545 21.1657C6.13259 21.5047 4.13266 22.293 2 23.4002Z" fill="#FAFAFA"/>
<path fill-rule="evenodd" clip-rule="evenodd" d="M11.7759 35.8167C11.7759 36.5559 11.1762 37.1554 10.4369 37.1554C9.69758 37.1554 9.09863 36.5559 9.09863 35.8167C9.09863 35.0776 9.69758 34.4781 10.4369 34.4781C11.1762 34.4781 11.7759 35.0776 11.7759 35.8167Z" fill="#FAFAFA"/>
</svg>
