<svg width="20" height="20" viewBox="0 0 20 20" fill="none" xmlns="http://www.w3.org/2000/svg">
<g clip-path="url(#clip0_152_54204)">
<path d="M10 17C13.866 17 17 13.866 17 10C17 6.13401 13.866 3 10 3C6.13401 3 3 6.13401 3 10C3 13.866 6.13401 17 10 17Z" fill="#26A17B"/>
<path fill-rule="evenodd" clip-rule="evenodd" d="M10.8409 10.6052V10.6043C10.7927 10.6078 10.5447 10.6227 9.99123 10.6227C9.54935 10.6227 9.23829 10.6096 9.12891 10.6043V10.6056C7.42791 10.5308 6.15829 10.2346 6.15829 9.88024C6.15829 9.5263 7.42791 9.23012 9.12891 9.15399V10.3107C9.24004 10.3186 9.55854 10.3374 9.99866 10.3374C10.5267 10.3374 10.7914 10.3156 10.8409 10.3112V9.15487C12.5384 9.23055 13.8049 9.52674 13.8049 9.88024C13.8049 10.2346 12.5384 10.5299 10.8409 10.6052V10.6052ZM10.8409 9.03455V7.99943H13.2095V6.42093H6.76029V7.99943H9.12891V9.03412C7.20391 9.12249 5.75623 9.50399 5.75623 9.96074C5.75623 10.4175 7.20391 10.7986 9.12891 10.8874V14.2045H10.8409V10.8865C12.7628 10.7981 14.207 10.4171 14.207 9.96074C14.207 9.50443 12.7628 9.12337 10.8409 9.03455" fill="white"/>
</g>
<defs>
<clipPath id="clip0_152_54204">
<rect width="14" height="14" fill="white" transform="translate(3 3)"/>
</clipPath>
</defs>
</svg>
