<svg width="48" height="48" viewBox="0 0 48 48" fill="none" xmlns="http://www.w3.org/2000/svg">
<rect width="48" height="48" rx="24" fill="#11142B"/>
<path d="M17.7434 20.1464C17.7434 20.1529 17.746 20.1592 17.7506 20.1638C17.7552 20.1684 17.7615 20.1709 17.768 20.1709L25.6644 20.1716C25.6683 20.1715 25.672 20.1727 25.6751 20.1749C25.6782 20.1772 25.6806 20.1803 25.6818 20.184C25.683 20.1877 25.683 20.1917 25.6819 20.1954C25.6807 20.1991 25.6784 20.2024 25.6754 20.2048L17.7766 26.0642C17.7662 26.0718 17.7578 26.0818 17.752 26.0933C17.7462 26.1048 17.7431 26.1176 17.7431 26.1305V31.8809C17.7431 31.884 17.7422 31.8871 17.7404 31.8897C17.7387 31.8924 17.7362 31.8944 17.7333 31.8956C17.7304 31.8968 17.7272 31.8971 17.7241 31.8965C17.721 31.8959 17.7181 31.8944 17.7159 31.8922L9.7515 23.9264C9.74452 23.9195 9.739 23.9112 9.73526 23.9021C9.73153 23.893 9.72965 23.8832 9.72974 23.8733C9.72983 23.8635 9.73189 23.8537 9.7358 23.8447C9.73971 23.8357 9.74539 23.8275 9.7525 23.8207C10.0532 23.5319 10.3658 23.2432 10.6525 22.9565C12.9254 20.6835 15.1985 18.4106 17.4716 16.1377C17.5455 16.0638 17.6258 15.9673 17.7226 15.9C17.736 15.8907 17.7428 15.8943 17.7428 15.9106L17.7434 20.1464Z" fill="#8C8DFC"/>
<path d="M29.9678 15.9132L37.9412 23.8893C37.946 23.8941 37.9488 23.9007 37.9488 23.9076C37.9488 23.9145 37.946 23.9211 37.9412 23.9261C37.6756 24.1976 37.3607 24.4826 37.1217 24.722C34.7281 27.1162 32.3425 29.5015 29.9648 31.8779C29.9319 31.9108 29.9154 31.904 29.9154 31.8573L29.9214 27.6557C29.9214 27.6281 29.9075 27.6142 29.8796 27.6142C27.3742 27.6136 24.8729 27.6118 22.3756 27.6089C22.2519 27.6087 22.1258 27.604 21.9974 27.5947C21.9937 27.5944 21.9902 27.5931 21.9874 27.5907C21.9845 27.5884 21.9825 27.5852 21.9816 27.5817C21.9806 27.5781 21.9808 27.5744 21.9821 27.5709C21.9834 27.5675 21.9857 27.5646 21.9888 27.5625C22.0664 27.5098 22.1519 27.4578 22.2241 27.4047C24.7333 25.559 27.2422 23.7129 29.7507 21.8665C29.7894 21.838 29.8604 21.7979 29.9071 21.7521C29.9103 21.7491 29.9128 21.7455 29.9145 21.7415C29.9162 21.7375 29.9171 21.7332 29.9171 21.7289V15.9345C29.9171 15.8865 29.934 15.8794 29.9678 15.9132Z" fill="#4E529A"/>
</svg>
